<?xml version="1.0" encoding="UTF-8" standalone="no"?>
<svg
   xmlns:dc="http://purl.org/dc/elements/1.1/"
   xmlns:cc="http://creativecommons.org/ns#"
   xmlns:rdf="http://www.w3.org/1999/02/22-rdf-syntax-ns#"
   xmlns:svg="http://www.w3.org/2000/svg"
   xmlns="http://www.w3.org/2000/svg"
   xmlns:sodipodi="http://sodipodi.sourceforge.net/DTD/sodipodi-0.dtd"
   xmlns:inkscape="http://www.inkscape.org/namespaces/inkscape"
   width="210mm"
   height="297mm"
   viewBox="0 0 210 297"
   version="1.1"
   id="svg3591"
   inkscape:version="1.0 (4035a4f, 2020-05-01)"
   sodipodi:docname="logo_vreGI.svg">
  <defs
     id="defs3585">
    <clipPath
       id="clip-path">
      <polygon
         id="polygon12"
         points="354.79,112.76 183.36,13.78 11.94,112.76 11.94,310.7 183.36,409.67 354.79,310.7 "
         class="cls-1" />
    </clipPath>
    <style
       id="style9429">.cls-1{fill:#fff;}</style>
  </defs>
  <sodipodi:namedview
     id="base"
     pagecolor="#ffffff"
     bordercolor="#666666"
     borderopacity="1.0"
     inkscape:pageopacity="0.0"
     inkscape:pageshadow="2"
     inkscape:zoom="1"
     inkscape:cx="269.03039"
     inkscape:cy="694.1029"
     inkscape:document-units="mm"
     inkscape:current-layer="layer1"
     inkscape:document-rotation="0"
     showgrid="false"
     inkscape:window-width="1680"
     inkscape:window-height="899"
     inkscape:window-x="0"
     inkscape:window-y="25"
     inkscape:window-maximized="1" />
  <metadata
     id="metadata3588">
    <rdf:RDF>
      <cc:Work
         rdf:about="">
        <dc:format>image/svg+xml</dc:format>
        <dc:type
           rdf:resource="http://purl.org/dc/dcmitype/StillImage" />
        <dc:title />
      </cc:Work>
    </rdf:RDF>
  </metadata>
  <g
     inkscape:label="Layer 1"
     inkscape:groupmode="layer"
     id="layer1">
    <path
       inkscape:export-ydpi="300"
       inkscape:export-xdpi="300"
       style="fill:#43839f;fill-opacity:0.988235;stroke:none;stroke-width:4.77279;stroke-miterlimit:10;stroke-dasharray:none;stroke-dashoffset:0;stroke-opacity:1"
       d="M 71.281407,230.87457 45.118902,215.75329 v -30.27656 -30.2765 l 26.249999,-15.1499 26.249976,-15.14997 26.250013,15.14997 26.25,15.1499 v 30.2778 30.27785 l -26.22597,15.13608 c -14.42428,8.32484 -26.276163,15.12884 -26.337513,15.11999 -0.0614,-0.009 -11.884631,-6.82068 -26.274,-15.13738 z"
       id="path8345" />
    <text
       xml:space="preserve"
       style="font-weight:bold;font-size:2.82223px;line-height:1.25;font-family:sans-serif;-inkscape-font-specification:'sans-serif Bold';stroke-width:0.264583"
       x="22.586382"
       y="52.271339"
       id="text9187"><tspan
         sodipodi:role="line"
         id="tspan9185"
         x="22.586382"
         y="52.271339"
         style="stroke-width:0.264583" /></text>
    <rect
       style="fill:#43839f;fill-opacity:0.988235;stroke:#43839f;stroke-width:0.330729;stroke-miterlimit:10;stroke-dasharray:0.330729, 0.661458;stroke-opacity:1"
       id="rect9203"
       width="42.268803"
       height="18.069107"
       x="13.551829"
       y="11.293191" />
    <text
       xml:space="preserve"
       style="font-weight:bold;font-size:4.58611px;line-height:1.25;font-family:sans-serif;-inkscape-font-specification:'sans-serif Bold';stroke-width:0.264583"
       x="23.877033"
       y="20.327744"
       id="text9207"><tspan
         sodipodi:role="line"
         id="tspan9205"
         x="23.877033"
         y="20.327744"
         style="font-size:4.58611px;stroke-width:0.264583">43839f</tspan></text>
    <rect
       y="36.783535"
       x="13.067831"
       height="18.069107"
       width="42.268803"
       id="rect9203-3"
       style="fill:#3a312c;fill-opacity:1;stroke:#3a312c;stroke-width:0.330729;stroke-miterlimit:10;stroke-dasharray:0.330729, 0.66145799999999999;stroke-opacity:1" />
    <text
       id="text9207-8"
       y="45.818089"
       x="23.393042"
       style="font-weight:bold;font-size:4.5861px;line-height:1.25;font-family:sans-serif;-inkscape-font-specification:'sans-serif Bold';stroke-width:0.264583"
       xml:space="preserve"><tspan
         style="font-size:4.5861px;fill:#ffffff;stroke-width:0.264583"
         y="45.818089"
         x="23.393042"
         id="tspan9205-6"
         sodipodi:role="line">43839f</tspan></text>
    <rect
       style="fill:#cd8d61;fill-opacity:0.98823529;stroke:#cd8d61;stroke-width:0.330729;stroke-miterlimit:10;stroke-dasharray:0.330729, 0.66145799999999999;stroke-opacity:1"
       id="rect9203-3-3"
       width="42.268803"
       height="18.069107"
       x="13.06783"
       y="60.144314" />
    <text
       xml:space="preserve"
       style="font-weight:bold;font-size:4.5861px;line-height:1.25;font-family:sans-serif;-inkscape-font-specification:'sans-serif Bold';stroke-width:0.264583"
       x="23.39304"
       y="69.178864"
       id="text9207-8-7"><tspan
         sodipodi:role="line"
         id="tspan9205-6-6"
         x="23.39304"
         y="69.178864"
         style="font-size:4.5861px;stroke-width:0.264583">43839f</tspan></text>
    <rect
       y="12.461223"
       x="71.066437"
       height="18.069107"
       width="42.268803"
       id="rect9203-5"
       style="fill:#568666;fill-opacity:1;stroke:#568666;stroke-width:0.330729;stroke-miterlimit:10;stroke-dasharray:0.330729, 0.66145799999999999;stroke-opacity:1" />
    <text
       id="text9207-7"
       y="21.495785"
       x="81.39164"
       style="font-weight:bold;font-size:4.5861px;line-height:1.25;font-family:sans-serif;-inkscape-font-specification:'sans-serif Bold';stroke-width:0.264583"
       xml:space="preserve"><tspan
         style="font-size:4.5861px;stroke-width:0.264583"
         y="21.495785"
         x="81.39164"
         id="tspan9205-5"
         sodipodi:role="line">43839f</tspan></text>
    <rect
       style="fill:#d4d6d5;fill-opacity:0.98823529;stroke:#d4d6d5;stroke-width:0.330729;stroke-miterlimit:10;stroke-dasharray:0.330729, 0.66145799999999999;stroke-opacity:1"
       id="rect9203-3-35"
       width="42.268803"
       height="18.069107"
       x="70.582443"
       y="37.951576" />
    <text
       xml:space="preserve"
       style="font-weight:bold;font-size:4.5861px;line-height:1.25;font-family:sans-serif;-inkscape-font-specification:'sans-serif Bold';stroke-width:0.264583"
       x="80.907654"
       y="46.986134"
       id="text9207-8-6"><tspan
         sodipodi:role="line"
         id="tspan9205-6-3"
         x="80.907654"
         y="46.986134"
         style="font-size:4.5861px;stroke-width:0.264583">43839f</tspan></text>
    <path
       inkscape:export-ydpi="300"
       inkscape:export-xdpi="300"
       id="path8345-3"
       d="m 73.486415,227.28484 -24.119033,-13.9402 v -27.91175 -27.91174 l 24.199692,-13.96663 24.199688,-13.96665 24.199708,13.96665 24.19969,13.96663 v 27.91294 27.91294 l -24.17754,13.95385 c -13.29764,7.67461 -24.223808,13.94717 -24.280368,13.93901 -0.0566,-0.008 -10.956377,-6.28794 -24.221837,-13.95505 z"
       style="fill:none;fill-opacity:0.988235;stroke:#ffffff;stroke-width:1.5;stroke-miterlimit:10;stroke-dasharray:none;stroke-dashoffset:0;stroke-opacity:1" />
    <path
       inkscape:export-ydpi="300"
       inkscape:export-xdpi="300"
       style="stroke-width:0;stroke-miterlimit:10;stroke-dasharray:none"
       class="cls-1"
       d="m 106.66293,165.16202 c 2.27802,0.84177 0.91311,4.36105 -1.32211,3.48123 -2.23522,-0.87982 -0.92263,-4.3563 1.32211,-3.48123 z"
       id="path9433" />
    <path
       inkscape:export-ydpi="300"
       inkscape:export-xdpi="300"
       style="stroke-width:0;stroke-miterlimit:10;stroke-dasharray:none"
       class="cls-1"
       d="m 98.682715,156.83463 c 2.815425,0.88458 3.980595,4.07096 2.853475,7.75669 a 0.17120834,0.17120834 0 0 1 0,0.0523 c -1.612214,3.90926 -4.87944,5.43587 -6.658104,6.29667 a 0.83701853,0.83701853 0 0 1 -1.098587,-0.34718 c -0.922623,-1.6455 -2.653729,-4.66067 -1.902315,-8.5937 a 5.2694121,5.2694121 0 0 1 0.199743,-0.76093 c 0.989204,-2.99614 3.524038,-5.32172 6.605788,-4.40386 z m -4.408614,8.80296 a 14.785742,14.785742 0 0 0 0.684833,2.06402 0.42802084,0.42802084 0 0 0 0.594473,0.21876 c 6.924423,-3.73329 3.414655,-12.10823 -0.09512,-7.78522 a 6.3347084,6.3347084 0 0 0 -1.184191,5.50244 z"
       id="path9435" />
    <path
       inkscape:export-ydpi="300"
       inkscape:export-xdpi="300"
       style="stroke-width:0;stroke-miterlimit:10;stroke-dasharray:none"
       class="cls-1"
       d="m 95.092096,150.08617 c 8.341654,-0.19023 13.511194,2.61568 16.554894,9.23098 l 7.30965,14.26736 c 2.85347,5.43587 -4.50373,12.64564 -10.36762,10.0252 -2.27802,-0.87506 -6.69615,-3.5811 -9.197692,-2.97712 -1.017739,-0.17121 -2.877252,1.85951 -4.227895,3.27198 a 0.95115742,0.95115742 0 0 1 -1.488562,-0.16169 63.356596,63.356596 0 0 1 -9.083553,-32.79116 0.95115742,0.95115742 0 0 1 0.951157,-0.95115 z m -5.987536,16.98767 a 59.775488,59.775488 0 0 0 5.264656,13.08793 0.61349654,0.61349654 0 0 0 0.984448,0.12365 c 6.943446,-7.10515 13.982016,6.13021 20.292946,-0.6135 1.17943,-1.24601 2.11157,-3.21015 1.1937,-4.99357 l -7.30013,-14.26737 v -0.0333 c -3.23394,-8.64602 -12.574304,-8.08483 -21.672125,-7.98496 a 0.84177432,0.84177432 0 0 0 -0.837018,0.87031 60.365206,60.365206 0 0 0 2.073523,13.8108 z"
       id="path9437" />
    <rect
       inkscape:export-ydpi="300"
       inkscape:export-xdpi="300"
       transform="rotate(77.597407)"
       style="fill:none;fill-opacity:0.988235;stroke:#ffffff;stroke-width:0.956793;stroke-linejoin:round;stroke-miterlimit:10;stroke-dasharray:none;stroke-dashoffset:0;stroke-opacity:1"
       id="rect9450"
       width="7.5801558"
       height="10.387621"
       x="200.76721"
       y="-57.994114" />
    <path
       inkscape:export-ydpi="300"
       inkscape:export-xdpi="300"
       id="path880"
       d="m 65.352086,210.60831 c 1.053345,-4.85102 4.751329,-8.38379 9.789583,-8.73125 7.453691,-0.51405 14.011992,7.92351 20.902083,9.78958 7.721458,2.09122 13.840408,-0.85477 20.372948,-4.49792 7.18573,-4.00742 14.26424,-8.97257 20.10833,-14.81666"
       style="fill:none;stroke:#ffffff;stroke-width:0.565;stroke-linecap:butt;stroke-linejoin:miter;stroke-opacity:1;stroke-miterlimit:4;stroke-dasharray:none" />
    <path
       inkscape:export-ydpi="300"
       inkscape:export-xdpi="300"
       style="stroke-width:0.0395587;fill:#ffffff"
       fill="#000000"
       d="m 65.352086,191.70782 c -2.995776,0 -5.42436,2.42859 -5.42436,5.42437 0.0022,0.91973 0.238222,1.82393 0.458089,2.22564 l 4.966271,11.25048 4.746325,-10.84872 h -0.0024 c 0.445827,-0.80399 0.679934,-1.70814 0.680487,-2.6274 3.8e-5,-2.99578 -2.428548,-5.42437 -5.424323,-5.42437 z m 0,2.71215 a 2.7121404,2.7121404 0 0 1 2.71214,2.71222 2.7121404,2.7121404 0 0 1 -2.71214,2.71214 2.7121404,2.7121404 0 0 1 -2.712141,-2.71214 2.7121404,2.7121404 0 0 1 2.712141,-2.71215 z"
       id="path882" />
    <path
       inkscape:export-ydpi="300"
       inkscape:export-xdpi="300"
       id="path882-3"
       d="m 136.12947,177.68493 c -2.48506,0 -4.49963,2.01457 -4.49963,4.49963 0.001,0.76294 0.19761,1.513 0.37999,1.84623 l 4.11964,9.33253 3.93719,-8.99927 h -0.001 c 0.36981,-0.66692 0.56402,-1.41694 0.56447,-2.17949 4e-5,-2.48506 -2.01453,-4.49963 -4.4996,-4.49963 z m 0,2.24979 a 2.2497826,2.2497826 0 0 1 2.24978,2.24984 2.2497826,2.2497826 0 0 1 -2.24978,2.24979 2.2497826,2.2497826 0 0 1 -2.24979,-2.24979 2.2497826,2.2497826 0 0 1 2.24979,-2.24979 z"
       fill="#000000"
       style="stroke-width:0.0328148;fill:#ffffff" />
  </g>
</svg>
